<svg width="18" height="18" viewBox="0 0 18 18" fill="none" xmlns="http://www.w3.org/2000/svg">
<path d="M9 1.15259C4.65117 1.15259 1.125 4.63041 1.125 8.91961C1.125 13.2088 4.65117 16.6866 9 16.6866C13.3488 16.6866 16.875 13.2088 16.875 8.91961C16.875 4.63041 13.3488 1.15259 9 1.15259ZM12.4014 6.38319L8.69941 11.4456C8.64767 11.5169 8.57946 11.5749 8.50044 11.6149C8.42142 11.655 8.33386 11.6759 8.24502 11.6759C8.15618 11.6759 8.06862 11.655 7.9896 11.6149C7.91057 11.5749 7.84237 11.5169 7.79063 11.4456L5.59863 8.44978C5.53184 8.35789 5.59863 8.2296 5.71289 8.2296H6.5373C6.7166 8.2296 6.88711 8.31455 6.99258 8.46018L8.24414 10.1731L11.0074 6.3936C11.1129 6.2497 11.2816 6.16301 11.4627 6.16301H12.2871C12.4014 6.16301 12.4682 6.29131 12.4014 6.38319Z" fill="#2251CC"/>
</svg>
