<svg width="18" height="19" viewBox="0 0 18 19" fill="none" xmlns="http://www.w3.org/2000/svg">
<path d="M9 1.91504C4.65117 1.91504 1.125 5.39286 1.125 9.68206C1.125 13.9713 4.65117 17.4491 9 17.4491C13.3488 17.4491 16.875 13.9713 16.875 9.68206C16.875 5.39286 13.3488 1.91504 9 1.91504ZM12.4014 7.14564L8.69941 12.2081C8.64767 12.2793 8.57946 12.3373 8.50044 12.3774C8.42142 12.4174 8.33386 12.4383 8.24502 12.4383C8.15618 12.4383 8.06862 12.4174 7.9896 12.3774C7.91057 12.3373 7.84237 12.2793 7.79063 12.2081L5.59863 9.21223C5.53184 9.12034 5.59863 8.99205 5.71289 8.99205H6.5373C6.7166 8.99205 6.88711 9.077 6.99258 9.22263L8.24414 10.9355L11.0074 7.15605C11.1129 7.01215 11.2816 6.92546 11.4627 6.92546H12.2871C12.4014 6.92546 12.4682 7.05376 12.4014 7.14564Z" fill="#06C847"/>
</svg>
