<svg width="18" height="19" viewBox="0 0 18 19" fill="none" xmlns="http://www.w3.org/2000/svg">
<path d="M9 2.03345C4.65117 2.03345 1.125 5.51127 1.125 9.80047C1.125 14.0897 4.65117 17.5675 9 17.5675C13.3488 17.5675 16.875 14.0897 16.875 9.80047C16.875 5.51127 13.3488 2.03345 9 2.03345ZM12.4014 7.26405L8.69941 12.3265C8.64767 12.3977 8.57946 12.4558 8.50044 12.4958C8.42142 12.5358 8.33386 12.5567 8.24502 12.5567C8.15618 12.5567 8.06862 12.5358 7.9896 12.4958C7.91057 12.4558 7.84237 12.3977 7.79063 12.3265L5.59863 9.33064C5.53184 9.23875 5.59863 9.11046 5.71289 9.11046H6.5373C6.7166 9.11046 6.88711 9.19541 6.99258 9.34104L8.24414 11.0539L11.0074 7.27445C11.1129 7.13056 11.2816 7.04387 11.4627 7.04387H12.2871C12.4014 7.04387 12.4682 7.17217 12.4014 7.26405Z" fill="#653CAD"/>
</svg>
